# xmcd
#
# Track frame offsets:
#   150
#   18306
#   32262
#   48018
#   66625
#   85381
#   100538
#   119893
#   135050
#   149306
#   164763
#   178419
#   198824
#
# Disc length: 2877 seconds
#
# Revision: 0
# Processed by: cddbd v1.5.1PL2 Copyright (c) Steve Scherf et al.
# Submitted via: Precision_Digital_Audio_Extractor 1.60.0
#
DISCID=b00b3b0d
DTITLE=02 - Echosystem
DYEAR=1900
DGENRE=Blues
TTITLE0=HEY-To_tu-BCM
TTITLE1=HEY-Luli_Lali-BCM
TTITLE2=HEY-Leze_tu,_lezec_chce-BCM
TTITLE3=HEY-Bylabym-BCM
TTITLE4=HEY-W_imieniu_dam-BCM
TTITLE5=HEY-A_ty-BCM
TTITLE6=HEY-Mimo_wszystko-BCM
TTITLE7=HEY-Cala_noc-BCM
TTITLE8=HEY-S.O.S.-BCM
TTITLE9=HEY-Mowie-BCM
TTITLE10=HEY-Ty,_Ty,_Ty-BCM
TTITLE11=HEY-Na_wiecznosc-BCM
TTITLE12=HEY-Nie_wierze_(Jackowi_Cz.)-BCM
EXTD=
EXTT0=
EXTT1=
EXTT2=
EXTT3=
EXTT4=
EXTT5=
EXTT6=
EXTT7=
EXTT8=
EXTT9=
EXTT10=dfgd
EXTT11=
EXTT12=
PLAYORDER=
